#N canvas 499 51 251 380 16;
#N canvas 762 265 195 350 reverb 0;
#X obj 7 162 freeverb~;
#X msg 20 100 dry 0;
#X msg 90 100 wet 1;
#X obj 90 50 loadbang;
#X obj 7 33 inlet~;
#X obj 6 235 *~;
#X obj 120 160 inlet;
#X obj 93 235 *~;
#X obj 6 269 outlet~;
#X obj 93 269 outlet~;
#X connect 0 0 5 0;
#X connect 0 1 7 0;
#X connect 1 0 0 0;
#X connect 2 0 0 0;
#X connect 3 0 1 0;
#X connect 3 0 2 0;
#X connect 4 0 0 0;
#X connect 5 0 8 0;
#X connect 6 0 5 1;
#X connect 6 0 7 1;
#X connect 7 0 9 0;
#X restore 20 80 pd reverb;
#X obj 50 148 +~;
#X obj 106 148 +~;
#X obj 20 -40 hsl 132 23 0.1 1 0 0 rev rev0 empty -2 -8 0 10 #4918da
#000000 #000000 13100 1;
#X obj 20 20 r~ audio;
#X obj 70 200 s~ audio-out;
#X text 50 -70 Reverberancia;
#X floatatom 170 -40 5 0 0 0 - rev -, f 5;
#X connect 0 0 1 1;
#X connect 0 1 2 1;
#X connect 1 0 5 0;
#X connect 2 0 5 0;
#X connect 3 0 0 1;
#X connect 4 0 0 0;
#X coords 0 -1 1 1 232 78 2 6 -78;
