#N canvas 313 198 869 351 12;
#X obj 60 0 vradio 20 0 0 4 ruido empty Ruidos 3 -13 0 15 #0963e4 #000000
#000000 2;
#X text 90 0 Ninguno;
#X obj 580 100 lop~;
#X obj 620 100 hip~;
#X obj 540 240 multiplex~ . . . .;
#X obj 537 138 r filtro;
#X obj 690 50 r frecuencia;
#X obj 750 110 r Q;
#X msg 690 110 1;
#X obj 660 170 reson~ 1 100 1;
#X obj 547 278 throw~ filtrado;
#X obj 470 60 multiplex~ . . . .;
#X obj 510 -20 noise~;
#X obj 470 -40 r ruido;
#X obj 550 0 pink~;
#X obj 610 20 osc~;
#X obj 60 106 vradio 20 0 0 4 filtro filtro0 Filtros 3 -13 0 15 #0963e4
#000000 #000000 3;
#X text 90 106 Ninguno;
#X text 90 126 Pasa Bajos;
#X text 90 146 Pasa Altos;
#X text 90 166 Pasa Banda;
#X text 90 20 Blanco;
#X text 90 40 Rosa;
#X text 90 60 Onda;
#X obj 610 -20 r frecuencia;
#X connect 2 0 4 1;
#X connect 3 0 4 2;
#X connect 4 0 10 0;
#X connect 5 0 4 0;
#X connect 6 0 2 1;
#X connect 6 0 3 1;
#X connect 6 0 9 2;
#X connect 7 0 9 3;
#X connect 8 0 9 1;
#X connect 9 0 4 3;
#X connect 11 0 3 0;
#X connect 11 0 2 0;
#X connect 11 0 9 0;
#X connect 12 0 11 1;
#X connect 13 0 11 0;
#X connect 14 0 11 2;
#X connect 15 0 11 3;
#X connect 24 0 15 0;
#X coords 0 -1 1 1 141 224 2 41 -27;
