#N canvas 401 51 932 607 12;
#X text 130 20 Presets;
#X obj 100 50 hradio 15 0 0 7 numpreset empty 0 4 -8 0 10 #fcfcfc #000000
#000000 0;
#X obj 320 130 s filtro0;
#X obj 320 190 s frec0;
#X obj 320 250 s Q0;
#X obj 320 310 s rev0;
#X obj 320 370 s factor10;
#X obj 320 430 s factor20;
#X text 30 80 1º;
#X text 30 100 Frecuencia: 432;
#X text 30 160 Factor 1: 1;
#X text 170 180 Factor 2: 2;
#X text 170 460 Factor 1: 1;
#X obj 320 60 bng 15 250 50 0 empty empty empty 17 7 0 10 #fcfcfc #000000
#000000;
#X floatatom 450 -10 5 0 0 0 - numpreset -, f 5;
#X obj 570 130 s filtro0;
#X obj 570 190 s frec0;
#X obj 570 250 s Q0;
#X obj 570 310 s rev0;
#X obj 570 370 s factor10;
#X obj 570 430 s factor20;
#X obj 570 60 bng 15 250 50 0 empty empty empty 17 7 0 10 #fcfcfc #000000
#000000;
#X obj 650 130 s filtro0;
#X obj 650 190 s frec0;
#X obj 650 250 s Q0;
#X obj 650 310 s rev0;
#X obj 650 370 s factor10;
#X obj 650 430 s factor20;
#X obj 650 60 bng 15 250 50 0 empty empty empty 17 7 0 10 #fcfcfc #000000
#000000;
#X msg 400 100 3;
#X msg 400 160 432;
#X msg 400 340 1;
#X obj 400 130 s filtro0;
#X obj 400 190 s frec0;
#X obj 400 250 s Q0;
#X obj 400 310 s rev0;
#X obj 400 370 s factor10;
#X obj 400 430 s factor20;
#X obj 400 60 bng 15 250 50 0 empty empty empty 17 7 0 10 #fcfcfc #000000
#000000;
#X msg 480 100 3;
#X obj 480 130 s filtro0;
#X obj 480 190 s frec0;
#X obj 480 250 s Q0;
#X obj 480 310 s rev0;
#X obj 480 370 s factor10;
#X obj 480 430 s factor20;
#X obj 480 60 bng 15 250 50 0 empty empty empty 17 7 0 10 #fcfcfc #000000
#000000;
#X msg 320 100 0;
#X msg 320 160 0;
#X msg 320 220 0;
#X msg 320 280 0;
#X msg 320 340 0;
#X msg 320 400 0;
#X msg 320 460 0;
#X obj 450 20 sel 0 1 2 3 4 5 6;
#X obj 730 130 s filtro0;
#X obj 730 190 s frec0;
#X obj 730 250 s Q0;
#X obj 730 310 s rev0;
#X obj 730 370 s factor10;
#X obj 730 430 s factor20;
#X obj 730 60 bng 15 250 50 0 empty empty empty 17 7 0 10 #fcfcfc #000000
#000000;
#X msg 810 340 1;
#X obj 810 130 s filtro0;
#X obj 810 190 s frec0;
#X obj 810 250 s Q0;
#X obj 810 310 s rev0;
#X obj 810 370 s factor10;
#X obj 810 430 s factor20;
#X obj 810 60 bng 15 250 50 0 empty empty empty 17 7 0 10 #fcfcfc #000000
#000000;
#X msg 810 400 3;
#X msg 480 460 0.2;
#X msg 480 400 2;
#X msg 480 340 0;
#X msg 480 280 0.8;
#X msg 480 220 30;
#X msg 400 220 90;
#X msg 400 280 0.2;
#X msg 400 400 1;
#X msg 400 460 0.2;
#X text 30 120 Q: 90;
#X text 30 180 Factor 2: 1;
#X text 30 200 Audio: 200;
#X text 170 100 Frecuencia: 50;
#X text 170 120 Q: 30;
#X text 170 160 Factor 1: 0;
#X text 170 200 Audio: 200;
#X text 170 80 2º;
#X text 30 230 3º;
#X text 170 230 4º;
#X text 30 380 5º;
#X text 170 380 6º;
#X msg 570 100 1;
#X msg 650 100 1;
#X msg 730 100 2;
#X msg 810 100 2;
#X msg 480 160 50;
#X msg 570 160 100;
#X msg 570 220 1;
#X msg 570 280 0.22;
#X msg 570 340 10;
#X msg 570 400 1;
#X msg 570 460 0.25;
#X text 30 250 Frecuencia: 100;
#X text 30 270 Q: -;
#X text 170 270 Q: -;
#X text 170 420 Q: -;
#X text 30 420 Q: -;
#X text 30 290 Reververación: 0.22;
#X text 30 140 Reververación: 0.2;
#X text 170 140 Reververación: 0.8;
#X text 30 310 Factor 1: 10;
#X text 30 330 Factor 2: 1;
#X text 30 350 Audio: 250;
#X msg 650 160 30;
#X msg 650 220 1;
#X msg 730 220 1;
#X msg 810 220 1;
#X msg 650 280 0.2;
#X msg 650 340 5;
#X msg 650 400 5;
#X msg 650 460 0.3;
#X text 170 250 Frecuencia: 30;
#X text 170 290 Reververación: 0.2;
#X text 170 310 Factor 1: 5;
#X text 170 330 Factor 2: 5;
#X text 170 350 Audio: 300;
#X msg 730 460 0.07;
#X msg 730 160 9000;
#X msg 730 280 0.14;
#X msg 810 280 0.17;
#X msg 810 160 5000;
#X msg 730 340 2;
#X msg 730 400 0;
#X text 30 400 Frecuencia: 9000;
#X text 30 460 Factor 1: 2;
#X text 30 480 Factor 2: 0;
#X text 30 500 Audio: 70;
#X text 170 480 Factor 2: 3;
#X text 30 440 Reververación: 0.14;
#X text 170 440 Reververación: 0.17;
#X text 170 400 Frecuencia: 5000;
#X msg 810 460 0.04;
#X text 170 500 Audio: 40;
#X obj 320 490 s amp0;
#X obj 400 490 s amp0;
#X obj 480 490 s amp0;
#X obj 570 490 s amp0;
#X obj 650 490 s amp0;
#X obj 730 490 s amp0;
#X obj 810 490 s amp0;
#X connect 13 0 47 0;
#X connect 13 0 48 0;
#X connect 13 0 49 0;
#X connect 13 0 50 0;
#X connect 13 0 51 0;
#X connect 13 0 52 0;
#X connect 13 0 53 0;
#X connect 14 0 54 0;
#X connect 21 0 92 0;
#X connect 21 0 97 0;
#X connect 21 0 98 0;
#X connect 21 0 99 0;
#X connect 21 0 100 0;
#X connect 21 0 101 0;
#X connect 21 0 102 0;
#X connect 28 0 93 0;
#X connect 28 0 114 0;
#X connect 28 0 115 0;
#X connect 28 0 118 0;
#X connect 28 0 119 0;
#X connect 28 0 120 0;
#X connect 28 0 121 0;
#X connect 29 0 32 0;
#X connect 30 0 33 0;
#X connect 31 0 36 0;
#X connect 38 0 29 0;
#X connect 38 0 30 0;
#X connect 38 0 76 0;
#X connect 38 0 77 0;
#X connect 38 0 31 0;
#X connect 38 0 78 0;
#X connect 38 0 79 0;
#X connect 39 0 40 0;
#X connect 46 0 39 0;
#X connect 46 0 96 0;
#X connect 46 0 75 0;
#X connect 46 0 74 0;
#X connect 46 0 73 0;
#X connect 46 0 72 0;
#X connect 46 0 71 0;
#X connect 47 0 2 0;
#X connect 48 0 3 0;
#X connect 49 0 4 0;
#X connect 50 0 5 0;
#X connect 51 0 6 0;
#X connect 52 0 7 0;
#X connect 53 0 144 0;
#X connect 54 0 13 0;
#X connect 54 1 38 0;
#X connect 54 2 46 0;
#X connect 54 3 21 0;
#X connect 54 4 28 0;
#X connect 54 5 61 0;
#X connect 54 6 69 0;
#X connect 61 0 94 0;
#X connect 61 0 128 0;
#X connect 61 0 116 0;
#X connect 61 0 129 0;
#X connect 61 0 132 0;
#X connect 61 0 133 0;
#X connect 61 0 127 0;
#X connect 62 0 67 0;
#X connect 69 0 95 0;
#X connect 69 0 131 0;
#X connect 69 0 117 0;
#X connect 69 0 130 0;
#X connect 69 0 62 0;
#X connect 69 0 70 0;
#X connect 69 0 142 0;
#X connect 70 0 68 0;
#X connect 71 0 146 0;
#X connect 72 0 45 0;
#X connect 73 0 44 0;
#X connect 74 0 43 0;
#X connect 75 0 42 0;
#X connect 76 0 34 0;
#X connect 77 0 35 0;
#X connect 78 0 37 0;
#X connect 79 0 145 0;
#X connect 92 0 15 0;
#X connect 93 0 22 0;
#X connect 94 0 55 0;
#X connect 95 0 63 0;
#X connect 96 0 41 0;
#X connect 97 0 16 0;
#X connect 98 0 17 0;
#X connect 99 0 18 0;
#X connect 100 0 19 0;
#X connect 101 0 20 0;
#X connect 102 0 147 0;
#X connect 114 0 23 0;
#X connect 115 0 24 0;
#X connect 116 0 57 0;
#X connect 117 0 65 0;
#X connect 118 0 25 0;
#X connect 119 0 26 0;
#X connect 120 0 27 0;
#X connect 121 0 148 0;
#X connect 127 0 149 0;
#X connect 128 0 56 0;
#X connect 129 0 58 0;
#X connect 130 0 66 0;
#X connect 131 0 64 0;
#X connect 132 0 59 0;
#X connect 133 0 60 0;
#X connect 142 0 150 0;
#X coords 0 -1 1 1 299 522 2 12 11;
